<svg width="387" height="399" viewBox="0 0 387 399" fill="none" xmlns="http://www.w3.org/2000/svg">
<path d="M346.398 120.074C277.454 36.6065 140.031 59.5102 79.9374 81.3955C-35.5911 101.78 5.86873 222.133 13.3222 268.287C20.7756 314.441 30.5583 349.869 135.373 360.92C219.224 369.761 264.721 322.134 276.988 297.215C328.852 272.946 415.343 203.541 346.398 120.074Z" fill="#EAEAEA"/>
<path d="M333.495 128.99C272.891 54.1188 152.092 74.6636 99.2676 94.295C-2.28574 112.58 34.1588 220.538 40.7106 261.939C47.2625 303.339 55.8617 335.119 147.997 345.032C221.705 352.962 261.698 310.239 272.482 287.887C318.071 266.118 394.1 203.861 333.495 128.99Z" fill="#E67D48"/>
<ellipse cx="65" cy="19" rx="8" ry="17" transform="rotate(-31.6801 65 19)" fill="#D9D9D9"/>
<ellipse cx="382" cy="121.5" rx="5" ry="5.5" fill="#D9D9D9"/>
<ellipse cx="162" cy="389" rx="24" ry="10" fill="#D9D9D9"/>
</svg>
