<svg width="234" height="235" viewBox="0 0 234 235" fill="none" xmlns="http://www.w3.org/2000/svg">
<mask id="mask0_166_45" style="mask-type:alpha" maskUnits="userSpaceOnUse" x="0" y="0" width="234" height="235">
<rect width="234" height="235" fill="#D9D9D9"/>
</mask>
<g mask="url(#mask0_166_45)">
<circle cx="116.054" cy="116.667" r="115.5" transform="rotate(-1.28155 116.054 116.667)" fill="#E67D48"/>
<path d="M80.7859 46.9381L115.577 46.1598L118.708 186.125L83.9171 186.903L80.7859 46.9381ZM133.905 185.785L106.311 186.402L105.641 156.41L132.034 155.819C137.366 155.7 142.483 154.919 147.385 153.475C152.421 152.029 156.771 149.731 160.434 146.582C164.232 143.429 167.206 139.295 169.359 134.179C171.509 128.93 172.499 122.506 172.329 114.908C172.159 107.31 170.884 101.003 168.505 95.9885C166.123 90.8405 162.964 86.7768 159.03 83.7973C155.229 80.8149 150.781 78.7139 145.686 77.4942C140.724 76.2715 135.577 75.7199 130.245 75.8391L103.851 76.4296L103.18 46.4371L130.773 45.8198C146.103 45.4769 159.43 48.0461 170.756 53.5275C182.081 59.0089 190.926 66.8797 197.291 77.14C203.655 87.4002 206.998 99.7285 207.32 114.125C207.639 128.388 204.851 140.853 198.955 151.521C193.055 162.056 184.571 170.314 173.502 176.297C162.433 182.279 149.234 185.442 133.905 185.785Z" fill="white"/>
</g>
</svg>
